# xmcd
#
# Track frame offsets:
#	150
#	13364
#	28556
#	48179
#	67774
#	85948
#	104846
#	126837
#	142308
#	158949
#	176510
#	192093
#	206254
#	225821
#	243549
#	260998
#	276441
#	294977
#	313012
#	332356
#
# Disc length: 4607 seconds
#
# Revision: 0
# Processed by: cddbd v1.5.1PL0 Copyright (c) Steve Scherf et al.
# Submitted via: EasyCDDAExtractor 7.5.0.1
#
DISCID=2311fd14
DTITLE=Cristian e Ralf - As 20 Mais
DYEAR=1900
DGENRE=Sertanejo
TTITLE0=A Semente do Amor
TTITLE1=Caprichos de Mulher
TTITLE2=Cheiro de Shampoo
TTITLE3=Crora Peito
TTITLE4=Chovendo Estrelas
TTITLE5=Como Tu
TTITLE6=Desejo de Amar
TTITLE7=Escravo do Amor
TTITLE8=Eu Quero Seu Amor
TTITLE9=Minha Giovanda
TTITLE10=Nova York
TTITLE11=O que Tiver de Vir Virá
TTITLE12=Palavras São Palavras
TTITLE13=Quem Sera seu Outro amor
TTITLE14=Se o Vento Soprar
TTITLE15=Sensível Demais
TTITLE16=Tribunal do Amor
TTITLE17=Último Adeus
TTITLE18=Um Cantinho do Seu Coração
TTITLE19=Vestido de Seda
EXTD=
EXTT0=
EXTT1=
EXTT2=
EXTT3=
EXTT4=
EXTT5=
EXTT6=
EXTT7=
EXTT8=
EXTT9=
EXTT10=
EXTT11=
EXTT12=
EXTT13=
EXTT14=
EXTT15=
EXTT16=
EXTT17=
EXTT18=
EXTT19=
PLAYORDER=
